<?xml version="1.0" encoding="utf-8"?>
<!-- Generator: Adobe Illustrator 24.1.1, SVG Export Plug-In . SVG Version: 6.00 Build 0)  -->
<svg version="1.1" id="Layer_1" xmlns="http://www.w3.org/2000/svg" xmlns:xlink="http://www.w3.org/1999/xlink" x="0px" y="0px"
	 viewBox="0 0 1171 301" style="enable-background:new 0 0 1171 301;" xml:space="preserve">
<style type="text/css">
	.st0{fill:#F6F7F7;}
	.st1{fill:#231F20;}
	.st2{fill:none;stroke:#0D0E0E;stroke-miterlimit:10;}
	.st3{fill:#BE3D59;stroke:#0D0E0E;stroke-miterlimit:10;}
	.st4{fill:#0C0D0D;stroke:#0D0E0E;stroke-miterlimit:10;}
	.st5{fill:url(#SVGID_1_);stroke:#0D0E0E;stroke-miterlimit:10;}
	.st6{fill:#CB3754;stroke:#CB3754;stroke-miterlimit:10;}
	.st7{fill:#CB3754;stroke:#CB3754;stroke-width:1.5;stroke-miterlimit:10;}
	.st8{fill:#CB3754;}
</style>
<g>
	<g>
		<path class="st0" d="M82.46,131.29l-9.5,28.18c-9.19-3.68-16.23-4.9-19.6-4.9c-5.82,0-8.88,1.84-8.88,4.9
			c0,3.06,4.29,6.13,13.78,12.25c21.75,15.01,28.49,22.67,28.49,36.76c0,18.38-15.93,34.61-45.95,34.61
			c-15.93,0-30.94-3.68-40.43-8.58l8.88-28.79c11.03,4.59,17.77,7.04,24.5,7.04c7.66,0,10.72-2.45,10.72-5.82
			c0-2.45-2.14-5.51-15.93-14.4C7.42,179.07,3.43,169.58,3.43,157.63c0-16.85,12.56-33.39,44.72-33.08
			C62.55,124.55,73.58,127.61,82.46,131.29z"/>
		<path class="st0" d="M232.55,183.67c0,34.61-28.49,60.65-66.16,60.65c-37.68,0-66.16-26.04-66.16-60.65
			c0-34.31,28.49-60.34,66.16-60.34C204.06,123.33,232.55,149.36,232.55,183.67z M140.04,183.67c0,15.62,11.33,26.95,26.34,26.95
			c14.7,0,26.34-11.33,26.34-26.95c0-15.01-11.64-26.65-26.34-26.65C151.38,157.02,140.04,168.66,140.04,183.67z"/>
		<path class="st0" d="M287.68,239.42h-38.9V128.23h37.37v17.46c4.9-8.27,15.93-19.91,33.08-19.91c14.7,0,26.96,7.66,32.77,21.13
			c4.29-8.27,15.01-21.13,34.92-21.13c22.05,0,37.37,15.62,37.37,41.04v72.59h-38.9v-60.65c0-13.48-5.21-18.68-14.4-18.68
			c-7.96,0-15.01,4.9-15.01,18.68v60.65h-38.9v-60.65c0-13.48-5.51-18.68-14.4-18.68c-9.8,0-15.01,6.74-15.01,16.85V239.42z"/>
		<path class="st0" d="M520.77,224.1c-6.13,7.96-18.38,17.77-36.76,17.77c-21.75,0-39.51-15.62-39.51-41.04v-72.59h38.9v60.65
			c0,13.17,7.04,18.68,17.15,18.68c9.19,0,18.07-6.74,18.07-16.85v-62.49h38.9v111.19h-36.76V224.1z"/>
		<path class="st0" d="M657.68,243.09c-18.68,0-33.39-7.96-42.27-21.44v17.77h-36.45V0.5h38.9v143.66
			c8.88-12.25,22.97-19.6,39.82-19.6c29.41,0,52.07,26.04,52.07,59.73C709.75,218.59,687.09,243.09,657.68,243.09z M643.9,209.7
			c14.4,0,25.73-11.64,25.73-25.73c0-15.01-11.33-26.04-25.73-26.04c-14.7,0-26.34,11.03-26.34,26.04
			C617.56,198.37,629.2,209.7,643.9,209.7z"/>
		<path class="st0" d="M792.14,244.32c-44.72,0-69.84-24.81-69.84-60.65c0-35.53,25.42-60.34,64.32-60.34
			c34.31,0,61.26,25.42,61.26,60.65V195h-83.62c3.06,14.09,13.48,19.6,29.1,19.6c13.17,0,24.5-4.59,34-11.33l18.99,22.97
			C834.11,236.66,814.5,244.32,792.14,244.32z M764.58,172.64h42.58c-2.76-11.95-10.11-18.68-21.14-18.68
			C774.68,153.96,767.33,160.7,764.58,172.64z"/>
		<path class="st0" d="M902.41,239.42h-38.9V128.23h37.06v24.81c3.37-8.58,15.32-26.04,32.47-26.04h3.68v43.8
			c-1.53-0.61-4.59-0.92-7.04-0.92c-16.54,0-27.26,10.11-27.26,17.15V239.42z"/>
		<path class="st0" d="M993.99,239.42h-38.9V128.23h37.06v24.81c3.37-8.58,15.32-26.04,32.47-26.04h3.68v43.8
			c-1.53-0.61-4.59-0.92-7.04-0.92c-16.54,0-27.26,10.11-27.26,17.15V239.42z"/>
		<path class="st0" d="M1106.09,300.68h-40.13l20.52-56.67l-50.23-115.78h44.11l26.04,71.37l23.58-71.37h40.74L1106.09,300.68z"/>
	</g>
	<g>
		<circle class="st1" cx="166.77" cy="183.6" r="79.22"/>
		<g>
			<path class="st0" d="M175.2,238.3c14.73-5.24,16.43-12.51,23.62-13.16c1.4-0.13-3.57-3.39-10.5-1.41
				c-18.22,5.19-34.98-5.3-41.33-17.82c-5.85-11.55-4.43-18.13-10.09-29.32c-0.83-1.64-6.07-9.1-11.75-9.28
				c-12.46-0.41-26.36,21.55-15.01,44.84C121.65,235.79,153.21,246.13,175.2,238.3z"/>
			<path class="st0" d="M227.32,188.29c-3.31,18.05-9.09,20.65-12.43,24.86c-0.49,0.62-0.94,1.22-1.35,1.81
				c-3.09,4.42-4.1,7.89-4.12,7.98h0c-0.37,0.02-0.75,0.03-1.12,0.04c-0.38,0-0.75,0-1.12-0.02c0,0,0,0,0,0
				c-0.03-0.09-1.07-3.54-4.22-7.93c-0.42-0.58-0.88-1.19-1.37-1.8c-3.39-4.17-9.2-6.7-12.74-24.71c0,0,0,0,0,0
				c3.95-6.45,11.05-10.76,19.17-10.82C216.13,177.67,223.28,181.9,227.32,188.29C227.32,188.29,227.32,188.29,227.32,188.29z"/>
			<line class="st2" x1="208.16" y1="200.31" x2="208.16" y2="200.31"/>
			<polygon class="st3" points="208.17,201.42 208.16,201.43 208.16,201.43 			"/>
			<path class="st4" d="M188.8,188.62c-7.2,7.29-6.01,13.78-6.01,13.78s9.65-2.84,12.97-6.79c0.57-0.68,0.38-4.8-1.19-6.17
				C192.5,187.65,188.8,188.62,188.8,188.62z"/>
			<path class="st4" d="M227.37,188.38c7.29,7.2,6.18,13.7,6.18,13.7s-9.69-2.72-13.06-6.62c-0.58-0.67-0.44-4.8,1.11-6.18
				C223.65,187.45,227.37,188.38,227.37,188.38z"/>
			<path class="st2" d="M188.85,188.53c0.04-0.07,0.09-0.14,0.13-0.21C188.94,188.39,188.89,188.46,188.85,188.53
				C188.85,188.54,188.85,188.53,188.85,188.53C188.85,188.53,188.85,188.53,188.85,188.53z"/>
			<path class="st2" d="M189.27,187.88c0.83-1.25,1.77-2.41,2.82-3.47C191.04,185.47,190.09,186.63,189.27,187.88z"/>
			<path class="st2" d="M188.85,188.54c0.01,0.05,0.02,0.11,0.03,0.16c-0.03-0.02-0.06-0.05-0.09-0.07c0,0,0,0,0,0
				C188.81,188.59,188.83,188.57,188.85,188.54z"/>
			<line class="st2" x1="208.16" y1="200.31" x2="208.16" y2="200.31"/>
			<polygon class="st2" points="208.17,201.42 208.16,201.43 208.16,201.43 			"/>
			
				<linearGradient id="SVGID_1_" gradientUnits="userSpaceOnUse" x1="-266.6039" y1="-392.1962" x2="-266.6039" y2="-381.3426" gradientTransform="matrix(1 -6.275129e-03 6.275129e-03 1 477.0731 568.1946)">
				<stop  offset="0" style="stop-color:#F6F7F7"/>
				<stop  offset="0.201" style="stop-color:#F59EA1;stop-opacity:0.4"/>
				<stop  offset="0.5594" style="stop-color:#D93D57;stop-opacity:0.9"/>
				<stop  offset="0.893" style="stop-color:#000000"/>
			</linearGradient>
			<path class="st5" d="M227.29,188.41c0.01-0.04,0.01-0.08,0.02-0.11c0,0,0,0,0,0c-4.03-6.4-11.18-10.63-19.3-10.57
				c-8.12,0.05-15.21,4.37-19.17,10.82c0,0,0,0,0,0c0.01,0.04,0.02,0.08,0.02,0.12c-0.03-0.02-0.05-0.05-0.08-0.07c0,0,0,0,0,0
				c3.94-6.5,11.06-10.85,19.22-10.91c8.16-0.05,15.33,4.22,19.36,10.66C227.34,188.37,227.32,188.39,227.29,188.41z"/>
			<path class="st6" d="M227.32,188.29c-0.01,0.04-0.01,0.08-0.02,0.11c-18.75,16.56-17.87,34.5-17.87,34.5
				c-0.37,0.02-0.75,0.03-1.13,0.04c-0.38,0-0.75,0-1.13-0.02c0-0.02,0.65-17.95-18.3-34.27c-0.01-0.04-0.02-0.08-0.02-0.12
				c0,0,0,0,0,0c3.95-6.45,11.05-10.76,19.17-10.82C216.13,177.67,223.28,181.9,227.32,188.29
				C227.32,188.29,227.32,188.29,227.32,188.29z"/>
			<path class="st2" d="M188.8,188.62c-7.2,7.29-6.01,13.78-6.01,13.78s9.65-2.84,12.97-6.79c0.57-0.68,0.38-4.8-1.19-6.17
				C192.5,187.65,188.8,188.62,188.8,188.62z"/>
			<path class="st2" d="M227.37,188.38c7.29,7.2,6.18,13.7,6.18,13.7s-9.69-2.72-13.06-6.62c-0.58-0.67-0.44-4.8,1.11-6.18
				C223.65,187.45,227.37,188.38,227.37,188.38z"/>
			<path class="st7" d="M188.8,188.62c-7.2,7.29-6.01,13.78-6.01,13.78s9.65-2.84,12.97-6.79c0.57-0.68,0.38-4.8-1.19-6.17
				C192.5,187.65,188.8,188.62,188.8,188.62z"/>
			<path class="st7" d="M227.37,188.38c7.29,7.2,6.18,13.7,6.18,13.7s-9.69-2.72-13.06-6.62c-0.58-0.67-0.44-4.8,1.11-6.18
				C223.65,187.45,227.37,188.38,227.37,188.38z"/>
			<path class="st8" d="M118.39,173.58c2.91,3.45,8.01,3.45,9.65,3.67c20.39,2.71,21.19-21.59,42.03-19.15
				c22.97,2.69,16.04,22.6,31.75,25.19c4.85,0.8,11.57,0.17,15.7-3.17c3.68-2.97,3.84-7.02,4.13-8.73
				c3.63-21.33-14.34-42.5-46.02-47.84c-36.38-6.13-58.12,20.03-61.35,31.51C112.16,162.6,112.46,166.56,118.39,173.58z"/>
			<path class="st8" d="M146.99,205.91c-5.85-11.55-4.43-18.13-10.09-29.32c-0.83-1.64-6.07-9.1-11.75-9.28
				c-12.46-0.41-26.36,21.55-15.01,44.84C121.65,235.79,153.34,218.43,146.99,205.91z"/>
		</g>
		<path class="st6" d="M208.38,221.37c-1.22,0-2.01,0.26-2.01,0.26s0.82,2.29,2.01,2.29c1.18,0,2.01-2.29,2.01-2.29
			S209.6,221.37,208.38,221.37z"/>
	</g>
</g>
</svg>
